<svg width="24" height="24" viewBox="0 0 24 24" fill="none" xmlns="http://www.w3.org/2000/svg">
<g id="Hide">
<path id="Vector" d="M8.073 12.1979L4.212 8.33687C2.692 9.99388 2.116 11.6539 2.106 11.6879L2 12.0039L2.105 12.3199C2.127 12.3869 4.421 19.0039 12.054 19.0039C12.983 19.0039 13.829 18.9019 14.606 18.7309L11.86 15.9849C10.8713 15.9364 9.93595 15.5219 9.23598 14.8219C8.53601 14.1219 8.12147 13.1866 8.073 12.1979ZM12.054 5.00388C10.199 5.00388 8.679 5.40788 7.412 6.00188L3.707 2.29688L2.293 3.71088L20.293 21.7109L21.707 20.2969L18.409 16.9989C21.047 15.0459 21.988 12.3619 22.002 12.3199L22.107 12.0039L22.002 11.6879C21.98 11.6209 19.687 5.00388 12.054 5.00388ZM13.96 12.5499C14.147 11.8729 13.988 11.1109 13.468 10.5899C12.948 10.0689 12.185 9.91087 11.508 10.0979L10 8.58988C10.618 8.20986 11.3285 8.00713 12.054 8.00387C14.26 8.00387 16.054 9.79787 16.054 12.0039C16.051 12.7292 15.8479 13.4396 15.467 14.0569L13.96 12.5499Z" fill="#606060"/>
</g>
</svg>
